<svg width="196" height="28" viewBox="0 0 196 28" fill="none" xmlns="http://www.w3.org/2000/svg">
<g clip-path="url(#clip0_77_84)">
<path d="M22.7182 13.5228C23.4498 15.0617 23.8156 16.8476 23.8156 18.882C23.8156 20.6883 23.426 22.2828 22.6453 23.6697C21.8646 25.0566 20.7854 26.1235 19.4076 26.8747C18.0299 27.6244 16.4629 28 14.7067 28C13.4635 28 12.3226 27.8407 11.2855 27.5236C10.2483 27.205 9.43819 26.8937 8.85233 26.5882L2.52278 28H2.26629V4.84472C2.26629 4.43844 2.14996 3.96054 1.9187 3.41396C1.68744 2.86737 1.39451 2.39678 1.04131 2.00219C0.688113 1.6076 0.340521 1.41176 -0.00146484 1.41176V1.14432L9.03593 0H9.29242V11.7486C9.85306 10.9098 10.6954 10.1907 11.8167 9.59299C12.9379 8.99525 14.1587 8.69711 15.4748 8.69711C17.0362 8.69711 18.4504 9.11655 19.7188 9.95543C20.9872 10.7943 21.9865 11.9839 22.7182 13.5214V13.5228ZM18.0719 22.6584C18.0719 20.9295 17.6753 19.2576 16.8834 17.6427C16.0915 16.0278 15.109 14.7242 13.9387 13.7333C12.7683 12.741 11.6709 12.2455 10.6464 12.2455C10.0857 12.2455 9.63441 12.3478 9.29242 12.551V20.4092C9.43819 21.5287 9.804 22.5649 10.3899 23.5177C10.9757 24.4706 11.6709 25.2276 12.4754 25.7874C13.2799 26.3471 14.0732 26.6262 14.8539 26.6262C15.8294 26.6262 16.6101 26.3149 17.1959 25.6909C17.7818 25.0683 18.0733 24.057 18.0733 22.6584H18.0719ZM37.5217 27.0837C36.4971 26.8294 35.8748 26.5999 35.6562 26.3968L36.4242 19.6829H36.7536C37.4362 21.2846 38.3024 22.6262 39.3507 23.7077C40.3991 24.7877 41.4601 25.5959 42.5337 26.1293C43.6073 26.6628 44.5338 26.9302 45.3145 26.9302C45.9732 26.9302 46.4848 26.7782 46.8506 26.4728C47.2164 26.1673 47.4 25.7611 47.4 25.2525C47.4 24.8199 47.2599 24.4326 46.9796 24.0891C46.6992 23.7457 46.1933 23.3394 45.4616 22.8688C44.73 22.3982 43.498 21.6675 41.7671 20.6752C39.6703 19.4797 38.1454 18.4187 37.1937 17.4907C36.242 16.5627 35.7669 15.4622 35.7669 14.1907C35.7669 12.5378 36.4985 11.2342 37.9618 10.2813C39.425 9.327 41.5344 8.85057 44.2913 8.85057C46.1694 8.85057 48.0041 9.02886 49.7967 9.384C51.5894 9.74059 52.8396 10.0957 53.546 10.4523L52.6686 16.7088H52.3392C51.7533 15.4373 50.9306 14.2872 49.8696 13.2569C48.8086 12.2265 47.6509 11.4256 46.3937 10.8542C45.1379 10.2813 43.9493 9.99635 42.8267 9.99635C42.0712 9.99635 41.498 10.1235 41.1069 10.3778C40.7159 10.6321 40.5211 10.9755 40.5211 11.4081C40.5211 11.7384 40.6556 12.0307 40.9233 12.285C41.191 12.5393 41.6423 12.8257 42.2772 13.1429C42.9108 13.46 44.0937 14.0139 45.826 14.8016L46.9599 15.335C49.302 16.4034 51.1128 17.4907 52.3925 18.597C53.6735 19.7033 54.3126 21.0698 54.3126 22.6978C54.3126 24.3259 53.6483 25.5521 52.3182 26.5312C50.9895 27.5104 48.8857 28 46.0069 28C44.3726 28 42.8056 27.9109 41.306 27.7326C39.8063 27.5543 38.5434 27.338 37.5189 27.0837H37.5217ZM75.1415 25.2145C74.7631 25.9525 74.166 26.5999 73.3489 27.1597C72.5318 27.7194 71.4287 27.9985 70.0384 27.9985C67.8435 27.9985 66.5989 26.9945 66.3074 24.985C65.5757 25.7991 64.6129 26.5049 63.4173 27.1027C62.2218 27.7004 60.9785 27.9985 59.6863 27.9985C58.174 27.9985 56.9238 27.6361 55.9371 26.9112C54.9489 26.1863 54.4556 25.1253 54.4556 23.7267C54.4556 20.2674 58.3828 18.3866 66.2359 18.0811V16.4019C66.2359 15.1816 65.8575 14.2843 65.102 13.7128C64.3465 13.1399 63.2239 12.855 61.7368 12.855C60.4684 12.855 59.3219 13.0449 58.2973 13.4278C57.2728 13.8093 56.443 14.369 55.8095 15.1071H55.3344C55.9931 13.0464 57.1817 11.4636 58.9014 10.3573C60.6211 9.25101 62.7614 8.69858 65.3221 8.69858C67.8827 8.69858 69.8408 9.27731 71.1933 10.4348C72.5472 11.5923 73.2242 13.3153 73.2242 15.6039V23.6916C73.2242 24.0219 73.2914 24.2762 73.426 24.4545C73.5605 24.6328 73.7371 24.722 73.9572 24.722C74.2501 24.722 74.5613 24.5247 74.8906 24.1315C75.22 23.7384 75.4947 23.2357 75.7134 22.6248H76.0792C75.8353 23.6171 75.5242 24.4808 75.1457 25.2189L75.1415 25.2145ZM66.2331 23.9562V18.9594C64.4531 18.9843 63.0375 19.2766 61.9891 19.8363C60.9407 20.3961 60.4165 21.2349 60.4165 22.3544C60.4165 23.2956 60.6968 24.0073 61.2575 24.491C61.8181 24.9748 62.5259 25.2159 63.3795 25.2159C64.5498 25.2159 65.5014 24.8988 66.2331 24.2616V23.9562ZM35.5146 27.2371V27.5046H23.9544V27.2371C24.5879 27.0851 25.1247 26.4991 25.5634 25.4819C26.0021 24.4647 26.2221 23.5499 26.2221 22.7358V14.0387C26.2221 13.6324 26.1058 13.1545 25.8745 12.608C25.6433 12.0614 25.3503 11.5908 24.9971 11.1962C24.6439 10.8016 24.2964 10.6043 23.9544 10.6043V10.3369L32.9539 9.19255H33.2104V22.7344C33.2104 23.5996 33.4178 24.5276 33.8327 25.5185C34.2476 26.5108 34.8082 27.0822 35.516 27.2357L35.5146 27.2371ZM32.5825 5.72744C32.5825 5.72013 32.5769 5.71282 32.5643 5.70552C31.3982 4.97187 30.4591 3.99269 29.7541 2.7753C29.7471 2.76361 29.7401 2.7563 29.7331 2.7563C29.7261 2.7563 29.7191 2.76215 29.7121 2.7753C29.0085 3.99123 28.0694 4.97041 26.9019 5.70552C26.8907 5.71282 26.8837 5.72013 26.8837 5.72744C26.8837 5.73475 26.8893 5.74205 26.9019 5.74936C28.068 6.48301 29.0071 7.46218 29.7121 8.67958C29.7191 8.69127 29.7261 8.69858 29.7331 8.69858C29.7401 8.69858 29.7471 8.69273 29.7541 8.67958C30.4577 7.46365 31.3968 6.48447 32.5643 5.74936C32.5755 5.74205 32.5825 5.73475 32.5825 5.72744Z" fill="#CE4257"/>
<path d="M143.107 25.5199C143.522 26.5122 144.083 27.0837 144.79 27.2371V27.5046H133.23V27.2371C133.864 27.0851 134.4 26.4991 134.841 25.4819C135.279 24.4647 135.499 23.5499 135.499 22.7358L135.78 15.0691C135.78 14.255 135.567 13.6193 135.139 13.1619C134.713 12.7044 134.109 12.475 133.328 12.475C132.304 12.475 131.133 12.9193 129.816 13.8107L129.536 22.7373C129.536 23.6025 129.743 24.5305 130.158 25.5214C130.573 26.5137 131.133 27.0851 131.841 27.2386V27.506H120.281V27.2386C120.914 27.0866 121.451 26.5005 121.89 25.4834C122.329 24.4662 122.549 23.5513 122.549 22.7373L122.829 13.6208C122.829 13.2145 122.713 12.7366 122.481 12.19C122.25 11.6434 121.957 11.1728 121.604 10.7782C121.251 10.3836 120.903 10.1863 120.561 10.1863V9.91889L129.561 8.73657H129.817V13.0084C130.451 11.8392 131.415 10.8279 132.707 9.97589C134 9.12386 135.366 8.69858 136.804 8.69858C138.633 8.69858 140.084 9.19401 141.157 10.1863C142.231 11.1787 142.768 12.7293 142.768 14.8396L142.488 22.7358C142.488 23.601 142.695 24.529 143.11 25.5199H143.107ZM158.332 26.0928C157.186 27.3643 155.442 28 153.1 28C151.149 28 149.57 27.5236 148.363 26.5692C147.156 25.6149 146.552 24.1081 146.552 22.049L146.832 10.1469L144.931 9.84143V9.19255C146.565 8.91341 148.205 8.19437 149.852 7.0369C151.498 5.87943 152.7 4.30983 153.455 2.32517H153.821V9.19401H159.601L159.344 14.1527L153.821 12.3595L153.54 20.7132C153.54 21.7815 153.826 22.5882 154.4 23.1348C154.973 23.6814 155.71 23.9547 156.613 23.9547C157.442 23.9547 158.167 23.7384 158.789 23.3058C159.412 22.8732 159.807 22.3515 159.978 21.7421H160.527C160.211 23.3701 159.479 24.8184 158.332 26.0913V26.0928ZM196.001 27.2371V27.5046H185.282V27.2371C186.429 27.0077 187.002 26.4362 187.002 25.5199C187.002 24.909 186.758 24.0965 186.27 23.0778L183.733 18.0051L181.904 19.4169L181.624 22.7358C181.624 23.601 181.831 24.529 182.246 25.5199C182.661 26.5122 183.222 27.0837 183.93 27.2371V27.5046H172.369V27.2371C173.003 27.0851 173.54 26.4991 173.978 25.4819C174.417 24.4647 174.637 23.5499 174.637 22.7358L174.917 4.84472C174.917 4.43844 174.801 3.96054 174.57 3.41396C174.339 2.86737 174.046 2.39678 173.692 2.00219C173.339 1.6076 172.992 1.41176 172.65 1.41176V1.14432L181.649 0H181.906V18.1571L186.552 12.5115C186.772 12.1301 186.881 11.7618 186.881 11.4052C186.881 10.8718 186.661 10.426 186.223 10.0694C185.784 9.71282 185.247 9.50968 184.614 9.45853V9.19108H195.162V9.45853C194.65 9.66167 193.223 10.6277 190.881 12.3581L187.356 15.2576L192.418 23.3058C194.003 25.5185 195.198 26.8279 196.003 27.2342L196.001 27.2371ZM172.228 27.2371V27.5046H160.667V27.2371C161.301 27.0851 161.838 26.4991 162.277 25.4819C162.715 24.4647 162.935 23.5499 162.935 22.7358L163.216 14.0387C163.216 13.6324 163.099 13.1545 162.868 12.608C162.637 12.0614 162.344 11.5908 161.991 11.1962C161.637 10.8016 161.29 10.6043 160.948 10.6043V10.3369L169.947 9.19255H170.204L169.924 22.7344C169.924 23.5996 170.131 24.5276 170.546 25.5185C170.961 26.5108 171.521 27.0822 172.229 27.2357L172.228 27.2371ZM169.296 5.72744C169.296 5.72013 169.29 5.71282 169.277 5.70552C168.111 4.97187 167.172 3.99269 166.467 2.7753C166.46 2.76361 166.453 2.7563 166.446 2.7563C166.439 2.7563 166.432 2.76215 166.425 2.7753C165.722 3.99123 164.783 4.97041 163.615 5.70552C163.604 5.71282 163.597 5.72013 163.597 5.72744C163.597 5.73475 163.602 5.74205 163.615 5.74936C164.781 6.48301 165.72 7.46218 166.425 8.67958C166.432 8.69127 166.439 8.69858 166.446 8.69858C166.453 8.69858 166.46 8.69273 166.467 8.67958C167.171 7.46365 168.11 6.48447 169.277 5.74936C169.289 5.74205 169.296 5.73475 169.296 5.72744ZM119.772 22.6218C119.552 23.2327 119.279 23.734 118.949 24.1286C118.62 24.5232 118.309 24.719 118.016 24.719C117.796 24.719 117.619 24.6299 117.485 24.4516C117.35 24.2733 117.283 24.019 117.283 23.6887L117.563 15.601C117.563 13.3124 116.886 11.5893 115.532 10.4319C114.178 9.27439 112.222 8.69565 109.661 8.69565C107.1 8.69565 104.96 9.24954 103.24 10.3544C101.643 11.3818 100.505 12.8213 99.8234 14.6715C99.8234 14.6715 99.1661 16.0965 99.1325 17.2802C98.8718 18.5765 97.8907 19.6463 96.7484 20.4911C95.6061 21.3358 94.1681 21.7567 92.4329 21.7567C90.5534 21.7567 88.6739 21.2218 86.7957 20.152C86.2533 19.8436 82.7802 17.0011 82.1551 16.1958C80.9413 14.6277 80.333 13.1662 80.333 11.81C80.333 10.6642 80.6288 9.73767 81.2217 9.02886C81.8145 8.32006 82.912 7.96639 83.9519 7.96639C85.282 7.96639 86.7999 8.48666 88.5057 9.52576C90.2114 10.5663 91.7868 11.8392 93.2332 13.3475C94.6782 14.8542 95.7056 16.2119 96.3125 17.4176H96.7021L99.7814 9.82097C99.3763 9.308 98.712 8.68981 97.7869 7.96639C96.8619 7.24297 95.6187 6.58677 94.0573 5.99927C92.496 5.41176 90.7174 5.11801 88.7229 5.11801C86.5841 5.11801 84.3009 5.53307 82.4354 6.36171C80.5699 7.19035 79.0674 8.46474 77.9251 10.1834C76.7828 11.9021 76.2124 13.9963 76.2124 16.4691C76.2124 18.7607 76.7044 20.7804 77.6869 22.5283C78.6694 24.2762 80.0289 25.6251 81.7641 26.5751C83.4992 27.525 85.4937 28 87.7488 28C90.004 28 91.847 27.5484 93.5388 26.6438C95.2305 25.7391 96.5886 24.4735 97.6159 22.8455C98.6419 21.2174 99.5221 19.3628 99.6959 17.2832C99.6959 17.2832 99.8977 14.7753 101.993 13.707C102.199 13.6061 102.412 13.5126 102.636 13.4293C103.661 13.0479 104.807 12.8564 106.076 12.8564C107.563 12.8564 108.686 13.1429 109.441 13.7143C110.197 14.2872 110.575 15.183 110.575 16.4034V18.0826C102.722 18.388 98.5144 20.2689 98.5144 23.7282C98.5144 25.1268 99.0077 26.1893 99.9958 26.9127C100.984 27.6376 102.233 28 103.745 28C105.037 28 106.282 27.7019 107.476 27.1041C108.672 26.5064 109.635 25.8005 110.366 24.9865C110.659 26.996 111.902 28 114.097 28C115.488 28 116.591 27.7209 117.408 27.1611C118.225 26.6014 118.822 25.954 119.2 25.2159C119.579 24.4779 119.89 23.6142 120.134 22.6218H119.768H119.772ZM110.297 23.9576V24.2631C109.566 24.8988 108.614 25.2174 107.444 25.2174C106.59 25.2174 105.882 24.9763 105.322 24.4925C104.761 24.0088 104.481 23.297 104.481 22.3559C104.481 21.2364 105.005 20.3975 106.053 19.8378C107.102 19.278 108.798 18.9858 110.578 18.9609L110.297 23.9576Z" fill="#FF6869"/>
</g>
<defs>
<clipPath id="clip0_77_84">
<rect width="196" height="28" fill="white"/>
</clipPath>
</defs>
</svg>
