<svg width="146" height="20" viewBox="0 0 146 20" fill="none" xmlns="http://www.w3.org/2000/svg">
<g clip-path="url(#clip0_77_460)">
<path d="M16.9206 9.65917C17.4655 10.7584 17.7379 12.034 17.7379 13.4871C17.7379 14.7774 17.4477 15.9163 16.8663 16.9069C16.2848 17.8976 15.481 18.6596 14.4549 19.1962C13.4287 19.7317 12.2617 20 10.9537 20C10.0277 20 9.178 19.8862 8.40552 19.6597C7.63303 19.4321 7.02966 19.2098 6.59331 18.9916L1.87908 20H1.68805V3.46052C1.68805 3.17031 1.6014 2.82896 1.42916 2.43854C1.25692 2.04812 1.03874 1.71199 0.775682 1.43014C0.51262 1.14829 0.253734 1.0084 -0.000976562 1.0084V0.81737L6.73006 0H6.9211V8.39188C7.33866 7.79268 7.96604 7.27909 8.80115 6.85213C9.63627 6.42518 10.5455 6.21222 11.5257 6.21222C12.6886 6.21222 13.7419 6.51182 14.6866 7.11102C15.6314 7.71021 16.3757 8.55995 16.9206 9.65812V9.65917ZM13.4601 16.1846C13.4601 14.9496 13.1646 13.7554 12.5748 12.6019C11.985 11.4484 11.2533 10.5173 10.3816 9.80949C9.50996 9.10068 8.69259 8.7468 7.9295 8.7468C7.51194 8.7468 7.17581 8.81988 6.9211 8.96498V14.578C7.02966 15.3776 7.30212 16.1178 7.73847 16.7984C8.17482 17.479 8.69259 18.0197 9.29179 18.4195C9.89098 18.8194 10.4818 19.0187 11.0633 19.0187C11.7898 19.0187 12.3713 18.7964 12.8076 18.3506C13.244 17.9059 13.4611 17.1836 13.4611 16.1846H13.4601ZM27.9462 19.3455C27.1831 19.1638 26.7196 18.9999 26.5568 18.8548L27.1288 14.0592H27.3742C27.8825 15.2033 28.5277 16.1616 29.3085 16.9341C30.0893 17.7055 30.8796 18.2828 31.6792 18.6638C32.4788 19.0448 33.1688 19.2359 33.7503 19.2359C34.2409 19.2359 34.6219 19.1273 34.8944 18.9091C35.1668 18.691 35.3036 18.4008 35.3036 18.0375C35.3036 17.7285 35.1992 17.4519 34.9904 17.2065C34.7816 16.9612 34.4048 16.671 33.8599 16.3349C33.315 15.9987 32.3974 15.4768 31.1082 14.768C29.5465 13.9141 28.4107 13.1562 27.7019 12.4933C26.9931 11.8305 26.6392 11.0444 26.6392 10.1362C26.6392 8.95558 27.1842 8.02443 28.274 7.34381C29.3638 6.66214 30.9349 6.32183 32.9882 6.32183C34.387 6.32183 35.7535 6.44919 37.0886 6.70286C38.4238 6.95757 39.3549 7.21123 39.8811 7.46594L39.2276 11.9349H38.9823C38.5459 11.0267 37.9332 10.2051 37.1429 9.46918C36.3527 8.73323 35.4904 8.16118 34.5541 7.75301C33.6187 7.34381 32.7335 7.14025 31.8974 7.14025C31.3347 7.14025 30.9077 7.23107 30.6165 7.4127C30.3252 7.59434 30.1801 7.83966 30.1801 8.14865C30.1801 8.38457 30.2804 8.59335 30.4797 8.77499C30.6791 8.95663 31.0153 9.16123 31.4881 9.38776C31.96 9.61428 32.841 10.0099 34.1313 10.5726L34.9758 10.9536C36.7201 11.7167 38.0689 12.4933 39.0219 13.2836C39.9761 14.0738 40.4521 15.0498 40.4521 16.2127C40.4521 17.3756 39.9573 18.2515 38.9666 18.9509C37.977 19.6503 36.4101 20 34.2659 20C33.0488 20 31.8817 19.9363 30.7647 19.809C29.6478 19.6816 28.7072 19.5271 27.9441 19.3455H27.9462ZM55.9654 18.0103C55.6836 18.5375 55.2389 18.9999 54.6303 19.3998C54.0217 19.7996 53.2001 19.999 52.1646 19.999C50.5298 19.999 49.6029 19.2818 49.3857 17.8464C48.8408 18.4279 48.1237 18.9321 47.2332 19.359C46.3428 19.786 45.4168 19.999 44.4544 19.999C43.328 19.999 42.3969 19.7401 41.662 19.2223C40.926 18.7045 40.5586 17.9467 40.5586 16.9476C40.5586 14.4767 43.4835 13.1333 49.3325 12.9151V11.7156C49.3325 10.844 49.0506 10.203 48.488 9.79488C47.9253 9.38567 47.0892 9.18211 45.9816 9.18211C45.0369 9.18211 44.183 9.31781 43.4199 9.59132C42.6568 9.86377 42.0388 10.2636 41.567 10.7908H41.2131C41.7037 9.31886 42.5889 8.18832 43.8698 7.39809C45.1507 6.60786 46.7447 6.21327 48.6519 6.21327C50.5591 6.21327 52.0174 6.62665 53.0248 7.45342C54.0332 8.28018 54.5374 9.51093 54.5374 11.1457V16.9226C54.5374 17.1585 54.5875 17.3402 54.6877 17.4675C54.7879 17.5949 54.9194 17.6585 55.0833 17.6585C55.3015 17.6585 55.5332 17.5176 55.7786 17.2368C56.0239 16.956 56.2285 16.5969 56.3913 16.1606H56.6638C56.4821 16.8694 56.2504 17.4863 55.9685 18.0135L55.9654 18.0103ZM49.3304 17.1115V13.5425C48.0047 13.5602 46.9503 13.769 46.1695 14.1688C45.3887 14.5686 44.9982 15.1678 44.9982 15.9674C44.9982 16.6397 45.207 17.1481 45.6246 17.4936C46.0421 17.8391 46.5693 18.0114 47.205 18.0114C48.0767 18.0114 48.7855 17.7849 49.3304 17.3297V17.1115ZM106.585 18.2285C106.894 18.9373 107.312 19.3455 107.839 19.4551V19.6461H99.2286V19.4551C99.7005 19.3465 100.1 18.9279 100.428 18.2014C100.755 17.4748 100.919 16.8213 100.919 16.2399L101.127 10.7636C101.127 10.1822 100.969 9.72807 100.65 9.40133C100.333 9.07459 99.8832 8.9107 99.3017 8.9107C98.5386 8.9107 97.667 9.22804 96.6857 9.86482L96.4769 16.2409C96.4769 16.8589 96.6314 17.5218 96.9404 18.2296C97.2494 18.9384 97.667 19.3465 98.1941 19.4561V19.6472H89.5841V19.4561C90.0559 19.3476 90.4557 18.929 90.7825 18.2024C91.1092 17.4759 91.2731 16.8224 91.2731 16.2409L91.4819 9.72911C91.4819 9.43891 91.3952 9.09755 91.223 8.70714C91.0508 8.31672 90.8326 7.98058 90.5695 7.69873C90.3064 7.41688 90.0476 7.27595 89.7929 7.27595V7.08492L96.4957 6.24041H96.6868V9.29172C97.1586 8.4566 97.8768 7.73422 98.8393 7.12563C99.8017 6.51704 100.82 6.21327 101.891 6.21327C103.253 6.21327 104.333 6.56715 105.133 7.27595C105.933 7.98476 106.332 9.09233 106.332 10.5997L106.124 16.2399C106.124 16.8579 106.278 17.5207 106.587 18.2285H106.585ZM117.925 18.6377C117.071 19.5459 115.772 20 114.028 20C112.575 20 111.398 19.6597 110.5 18.978C109.601 18.2964 109.151 17.2201 109.151 15.7493L109.36 7.24777L107.943 7.02959V6.5661C109.16 6.36672 110.382 5.85312 111.608 5.02636C112.835 4.19959 113.729 3.07845 114.292 1.66084H114.565V6.56715H118.87L118.678 10.1091L114.565 8.82823L114.356 14.7951C114.356 15.5582 114.569 16.1345 114.996 16.5249C115.423 16.9153 115.972 17.1105 116.644 17.1105C117.262 17.1105 117.802 16.956 118.265 16.647C118.729 16.338 119.023 15.9653 119.15 15.53H119.56C119.324 16.6929 118.779 17.7274 117.925 18.6367V18.6377ZM145.981 19.4551V19.6461H137.997V19.4551C138.851 19.2912 139.278 18.883 139.278 18.2285C139.278 17.7922 139.096 17.2118 138.733 16.4842L136.843 12.8608L135.481 13.8692L135.272 16.2399C135.272 16.8579 135.427 17.5207 135.736 18.2285C136.045 18.9373 136.462 19.3455 136.989 19.4551V19.6461H128.379V19.4551C128.851 19.3465 129.251 18.9279 129.578 18.2014C129.905 17.4748 130.068 16.8213 130.068 16.2399L130.277 3.46052C130.277 3.17031 130.191 2.82896 130.018 2.43854C129.846 2.04812 129.628 1.71199 129.365 1.43014C129.102 1.14829 128.843 1.0084 128.588 1.0084V0.81737L135.291 0H135.482V12.9694L138.943 8.93679C139.107 8.66434 139.188 8.40127 139.188 8.14656C139.188 7.76554 139.024 7.44715 138.697 7.19244C138.371 6.93773 137.971 6.79263 137.499 6.75609V6.56506H145.355V6.75609C144.974 6.9012 143.912 7.59121 142.167 8.82718L139.542 10.8983L143.311 16.647C144.492 18.2275 145.382 19.1628 145.982 19.453L145.981 19.4551ZM128.274 19.4551V19.6461H119.664V19.4551C120.136 19.3465 120.536 18.9279 120.862 18.2014C121.189 17.4748 121.353 16.8213 121.353 16.2399L121.562 10.0277C121.562 9.73746 121.475 9.39611 121.303 9.00569C121.131 8.61527 120.912 8.27914 120.649 7.99729C120.386 7.71543 120.127 7.57451 119.873 7.57451V7.38348L126.576 6.5661H126.767L126.558 16.2388C126.558 16.8568 126.712 17.5197 127.021 18.2275C127.33 18.9363 127.748 19.3444 128.275 19.454L128.274 19.4551ZM126.09 4.09103C126.09 4.08581 126.086 4.08059 126.077 4.07537C125.208 3.55133 124.509 2.85192 123.984 1.98236C123.978 1.97401 123.973 1.96879 123.968 1.96879C123.963 1.96879 123.957 1.97296 123.952 1.98236C123.428 2.85088 122.729 3.55029 121.859 4.07537C121.851 4.08059 121.846 4.08581 121.846 4.09103C121.846 4.09625 121.85 4.10147 121.859 4.10669C122.728 4.63072 123.427 5.33013 123.952 6.1997C123.957 6.20805 123.963 6.21327 123.968 6.21327C123.973 6.21327 123.978 6.20909 123.984 6.1997C124.508 5.33118 125.207 4.63177 126.077 4.10669C126.085 4.10147 126.09 4.09625 126.09 4.09103ZM26.4524 19.4551V19.6461H17.8423V19.4551C18.3142 19.3465 18.714 18.9279 19.0407 18.2014C19.3675 17.4748 19.5314 16.8213 19.5314 16.2399V10.0277C19.5314 9.73746 19.4447 9.39611 19.2725 9.00569C19.1002 8.61527 18.8821 8.27914 18.619 7.99729C18.3559 7.71543 18.097 7.57451 17.8423 7.57451V7.38348L24.5452 6.5661H24.7362V16.2388C24.7362 16.8568 24.8907 17.5197 25.1997 18.2275C25.5087 18.9363 25.9263 19.3444 26.4534 19.454L26.4524 19.4551ZM24.2686 4.09103C24.2686 4.08581 24.2644 4.08059 24.255 4.07537C23.3865 3.55133 22.6871 2.85192 22.162 1.98236C22.1568 1.97401 22.1515 1.96879 22.1463 1.96879C22.1411 1.96879 22.1359 1.97296 22.1307 1.98236C21.6066 2.85088 20.9072 3.55029 20.0376 4.07537C20.0293 4.08059 20.0241 4.08581 20.0241 4.09103C20.0241 4.09625 20.0283 4.10147 20.0376 4.10669C20.9062 4.63072 21.6056 5.33013 22.1307 6.1997C22.1359 6.20805 22.1411 6.21327 22.1463 6.21327C22.1515 6.21327 22.1568 6.20909 22.162 6.1997C22.686 5.33118 23.3854 4.63177 24.255 4.10669C24.2633 4.10147 24.2686 4.09625 24.2686 4.09103ZM89.2062 16.1585C89.0423 16.5948 88.8387 16.9529 88.5934 17.2347C88.3481 17.5166 88.1164 17.6565 87.8982 17.6565C87.7343 17.6565 87.6028 17.5928 87.5025 17.4654C87.4023 17.3381 87.3522 17.1564 87.3522 16.9205L87.561 11.1436C87.561 9.50885 87.0568 8.27809 86.0484 7.45133C85.04 6.62456 83.5827 6.21118 81.6755 6.21118C79.7683 6.21118 78.1743 6.60682 76.8934 7.396C75.7034 8.12986 74.8558 9.1581 74.3484 10.4797C74.3484 10.4797 73.8588 11.4975 73.8338 12.343C73.6396 13.269 72.9089 14.0331 72.0581 14.6365C71.2073 15.2398 70.1363 15.5405 68.844 15.5405C67.4441 15.5405 66.0442 15.1584 64.6454 14.3943C64.2414 14.174 61.6546 12.1436 61.1891 11.5685C60.285 10.4484 59.832 9.40446 59.832 8.43572C59.832 7.61731 60.0523 6.95548 60.4938 6.44919C60.9354 5.9429 61.7528 5.69028 62.5273 5.69028C63.518 5.69028 64.6485 6.0619 65.919 6.80411C67.1894 7.54737 68.3627 8.4566 69.44 9.5339C70.5163 10.6102 71.2815 11.5799 71.7335 12.4412H72.0237L74.3171 7.01498C74.0154 6.64857 73.5206 6.207 72.8316 5.69028C72.1427 5.17355 71.2167 4.70484 70.0538 4.28519C68.8909 3.86555 67.5662 3.65572 66.0808 3.65572C64.4878 3.65572 62.7873 3.95219 61.3978 4.54408C60.0084 5.13597 58.8894 6.04624 58.0386 7.27387C57.1878 8.50149 56.763 9.99739 56.763 11.7637C56.763 13.4005 57.1294 14.8432 57.8611 16.0917C58.5929 17.3402 59.6055 18.3037 60.8978 18.9822C62.1902 19.6607 63.6756 20 65.3553 20C67.0349 20 68.4076 19.6774 69.6676 19.0313C70.9276 18.3851 71.9391 17.4811 72.7043 16.3182C73.4684 15.1553 74.124 13.8306 74.2534 12.3451C74.2534 12.3451 74.4037 10.5538 75.9644 9.7907C76.1178 9.71867 76.2765 9.65186 76.4435 9.59236C77.2066 9.3199 78.0605 9.18315 79.0052 9.18315C80.1128 9.18315 80.949 9.38776 81.5116 9.79592C82.0743 10.2051 82.3561 10.845 82.3561 11.7167V12.9161C76.5072 13.1343 73.3734 14.4778 73.3734 16.9487C73.3734 17.9477 73.7409 18.7066 74.4768 19.2233C75.2128 19.7411 76.1429 20 77.2692 20C78.2317 20 79.1587 19.787 80.0481 19.3601C80.9385 18.9331 81.6557 18.4289 82.2006 17.8475C82.4188 19.2828 83.3447 20 84.9795 20C86.015 20 86.8365 19.8006 87.4451 19.4008C88.0537 19.001 88.4984 18.5385 88.7803 18.0114C89.0621 17.4842 89.2939 16.8673 89.4755 16.1585H89.2031H89.2062ZM82.1495 17.1126V17.3308C81.6045 17.7849 80.8957 18.0124 80.0241 18.0124C79.3884 18.0124 78.8612 17.8402 78.4436 17.4946C78.0261 17.1491 77.8173 16.6407 77.8173 15.9685C77.8173 15.1689 78.2077 14.5697 78.9885 14.1698C79.7694 13.77 81.0325 13.5613 82.3582 13.5435L82.1495 17.1126Z" fill="white"/>
</g>
<defs>
<clipPath id="clip0_77_460">
<rect width="145.98" height="20" fill="white"/>
</clipPath>
</defs>
</svg>
